<svg width="24" height="24" viewBox="0 0 24 24" fill="none" xmlns="http://www.w3.org/2000/svg">
<path d="M9.11222 16.4429C10.8904 18.623 12.7704 19.059 14.8192 18.2809C17.4039 17.3067 18.3576 15.0068 17.3077 12.0028L16.7404 10.3969C16.3678 9.32586 15.8299 8.85437 15.2444 9.07469L15.5109 9.83934C15.6174 10.1494 15.454 10.4696 15.1756 10.5722C14.8895 10.6828 14.562 10.5526 14.449 10.236L14.0355 9.05417C13.9131 8.70902 13.6397 8.56086 13.3211 8.67981C13.1883 8.73159 13.0554 8.82283 12.9605 8.91258L13.4382 10.2903C13.5497 10.6041 13.3814 10.9119 13.1107 11.0145C12.8274 11.1236 12.4991 10.9963 12.3939 10.6892L11.7662 8.90635C11.6438 8.5597 11.3704 8.41161 11.0518 8.53199C10.9253 8.58234 10.7847 8.67358 10.6913 8.76476L11.3789 10.7334C11.4855 11.0289 11.3283 11.3541 11.0436 11.4648C10.7512 11.574 10.4251 11.4321 10.3185 11.1301L8.37809 5.59807C8.28246 5.31207 8.02308 5.17708 7.76013 5.27776C7.49086 5.377 7.3685 5.64986 7.47046 5.93586L10.2307 13.8009C10.3674 14.2033 10.2077 14.5775 9.87169 14.7026C9.59237 14.8061 9.30054 14.7726 8.99589 14.449L7.15377 12.5304C6.98429 12.3414 6.8057 12.2582 6.5905 12.3362C6.32617 12.4369 6.23193 12.7003 6.3135 12.928C6.35429 13.0484 6.40279 13.1265 6.47309 13.2125L9.11222 16.4429Z" fill="white"/>
<path d="M15.232 19.5721C18.471 18.35 19.8001 15.3572 18.5155 11.6918L17.8897 9.89283C17.2627 8.10722 16.0492 7.35919 14.6363 7.85537C14.2468 7.36496 13.6545 7.20384 13.027 7.43838C12.8169 7.51934 12.6335 7.63092 12.4592 7.76366C12.0347 7.23318 11.4134 7.04657 10.7674 7.2848C10.6239 7.33883 10.4867 7.42059 10.3559 7.51405L9.55591 5.2411C9.19594 4.20788 8.29991 3.76814 7.36464 4.11907C6.40558 4.48089 5.9846 5.41649 6.34455 6.44971L8.44036 12.4296C8.45719 12.4726 8.44947 12.5061 8.41224 12.5207C8.38906 12.5353 8.36234 12.5207 8.33777 12.4981L7.57861 11.6423C7.11947 11.1785 6.56903 11.0435 6.03759 11.2417C5.25263 11.5431 4.78298 12.3198 5.10015 13.2147C5.1794 13.4702 5.34223 13.7667 5.53241 14.0078L8.15208 17.2859C10.1697 19.8007 12.5687 20.581 15.232 19.5721ZM14.8192 18.2811C12.7704 19.0592 10.8904 18.6232 9.11222 16.4431L6.47308 13.2127C6.40279 13.1267 6.35428 13.0486 6.3135 12.9282C6.23192 12.7006 6.32616 12.4371 6.5905 12.3365C6.8057 12.2584 6.98429 12.3416 7.15376 12.5306L8.99589 14.4492C9.30054 14.7728 9.59237 14.8063 9.87169 14.7029C10.2077 14.5777 10.3674 14.2035 10.2307 13.8011L7.47046 5.93607C7.3685 5.65007 7.49085 5.37721 7.76013 5.27797C8.02307 5.17729 8.28246 5.31228 8.37809 5.59828L10.3185 11.1303C10.4251 11.4323 10.7512 11.5742 11.0436 11.465C11.3283 11.3544 11.4855 11.0291 11.3789 10.7336L10.6913 8.76497C10.7847 8.67379 10.9253 8.58254 11.0518 8.5322C11.3704 8.41182 11.6438 8.5599 11.7662 8.90656L12.3938 10.6894C12.4991 10.9966 12.8274 11.1238 13.1107 11.0147C13.3814 10.9121 13.5497 10.6043 13.4382 10.2905L12.9605 8.91278C13.0554 8.82304 13.1883 8.7318 13.3211 8.68002C13.6396 8.56107 13.9131 8.70922 14.0355 9.05437L14.449 10.2362C14.562 10.5528 14.8895 10.683 15.1756 10.5724C15.454 10.4698 15.6174 10.1496 15.5109 9.83955L15.2444 9.07489C15.8299 8.85458 16.3678 9.32606 16.7404 10.3972L17.3077 12.003C18.3576 15.007 17.4039 17.3069 14.8192 18.2811Z" fill="black"/>
</svg>
